%TF.GenerationSoftware,KiCad,Pcbnew,(5.1.9)-1*%
%TF.CreationDate,2021-07-13T22:03:12+02:00*%
%TF.ProjectId,CameraSlider,43616d65-7261-4536-9c69-6465722e6b69,rev?*%
%TF.SameCoordinates,Original*%
%TF.FileFunction,Legend,Top*%
%TF.FilePolarity,Positive*%
%FSLAX46Y46*%
G04 Gerber Fmt 4.6, Leading zero omitted, Abs format (unit mm)*
G04 Created by KiCad (PCBNEW (5.1.9)-1) date 2021-07-13 22:03:12*
%MOMM*%
%LPD*%
G01*
G04 APERTURE LIST*
%ADD10C,0.300000*%
%ADD11C,0.200000*%
%ADD12C,0.127000*%
%ADD13C,0.120000*%
%ADD14C,0.015000*%
%ADD15C,0.150000*%
G04 APERTURE END LIST*
D10*
X182277142Y-116661428D02*
X182134285Y-116590000D01*
X182062857Y-116518571D01*
X181991428Y-116375714D01*
X181991428Y-116304285D01*
X182062857Y-116161428D01*
X182134285Y-116090000D01*
X182277142Y-116018571D01*
X182562857Y-116018571D01*
X182705714Y-116090000D01*
X182777142Y-116161428D01*
X182848571Y-116304285D01*
X182848571Y-116375714D01*
X182777142Y-116518571D01*
X182705714Y-116590000D01*
X182562857Y-116661428D01*
X182277142Y-116661428D01*
X182134285Y-116732857D01*
X182062857Y-116804285D01*
X181991428Y-116947142D01*
X181991428Y-117232857D01*
X182062857Y-117375714D01*
X182134285Y-117447142D01*
X182277142Y-117518571D01*
X182562857Y-117518571D01*
X182705714Y-117447142D01*
X182777142Y-117375714D01*
X182848571Y-117232857D01*
X182848571Y-116947142D01*
X182777142Y-116804285D01*
X182705714Y-116732857D01*
X182562857Y-116661428D01*
X183491428Y-116947142D02*
X184634285Y-116947142D01*
X185205714Y-116018571D02*
X186134285Y-116018571D01*
X185634285Y-116590000D01*
X185848571Y-116590000D01*
X185991428Y-116661428D01*
X186062857Y-116732857D01*
X186134285Y-116875714D01*
X186134285Y-117232857D01*
X186062857Y-117375714D01*
X185991428Y-117447142D01*
X185848571Y-117518571D01*
X185420000Y-117518571D01*
X185277142Y-117447142D01*
X185205714Y-117375714D01*
X187491428Y-116018571D02*
X186777142Y-116018571D01*
X186705714Y-116732857D01*
X186777142Y-116661428D01*
X186920000Y-116590000D01*
X187277142Y-116590000D01*
X187420000Y-116661428D01*
X187491428Y-116732857D01*
X187562857Y-116875714D01*
X187562857Y-117232857D01*
X187491428Y-117375714D01*
X187420000Y-117447142D01*
X187277142Y-117518571D01*
X186920000Y-117518571D01*
X186777142Y-117447142D01*
X186705714Y-117375714D01*
X187991428Y-116018571D02*
X188491428Y-117518571D01*
X188991428Y-116018571D01*
X170660714Y-115542142D02*
X170875000Y-115613571D01*
X171232142Y-115613571D01*
X171375000Y-115542142D01*
X171446428Y-115470714D01*
X171517857Y-115327857D01*
X171517857Y-115185000D01*
X171446428Y-115042142D01*
X171375000Y-114970714D01*
X171232142Y-114899285D01*
X170946428Y-114827857D01*
X170803571Y-114756428D01*
X170732142Y-114685000D01*
X170660714Y-114542142D01*
X170660714Y-114399285D01*
X170732142Y-114256428D01*
X170803571Y-114185000D01*
X170946428Y-114113571D01*
X171303571Y-114113571D01*
X171517857Y-114185000D01*
X171946428Y-114613571D02*
X172517857Y-114613571D01*
X172160714Y-114113571D02*
X172160714Y-115399285D01*
X172232142Y-115542142D01*
X172375000Y-115613571D01*
X172517857Y-115613571D01*
X173589285Y-115542142D02*
X173446428Y-115613571D01*
X173160714Y-115613571D01*
X173017857Y-115542142D01*
X172946428Y-115399285D01*
X172946428Y-114827857D01*
X173017857Y-114685000D01*
X173160714Y-114613571D01*
X173446428Y-114613571D01*
X173589285Y-114685000D01*
X173660714Y-114827857D01*
X173660714Y-114970714D01*
X172946428Y-115113571D01*
X174303571Y-114613571D02*
X174303571Y-116113571D01*
X174303571Y-114685000D02*
X174446428Y-114613571D01*
X174732142Y-114613571D01*
X174875000Y-114685000D01*
X174946428Y-114756428D01*
X175017857Y-114899285D01*
X175017857Y-115327857D01*
X174946428Y-115470714D01*
X174875000Y-115542142D01*
X174732142Y-115613571D01*
X174446428Y-115613571D01*
X174303571Y-115542142D01*
X175660714Y-114613571D02*
X175660714Y-116113571D01*
X175660714Y-114685000D02*
X175803571Y-114613571D01*
X176089285Y-114613571D01*
X176232142Y-114685000D01*
X176303571Y-114756428D01*
X176375000Y-114899285D01*
X176375000Y-115327857D01*
X176303571Y-115470714D01*
X176232142Y-115542142D01*
X176089285Y-115613571D01*
X175803571Y-115613571D01*
X175660714Y-115542142D01*
X177589285Y-115542142D02*
X177446428Y-115613571D01*
X177160714Y-115613571D01*
X177017857Y-115542142D01*
X176946428Y-115399285D01*
X176946428Y-114827857D01*
X177017857Y-114685000D01*
X177160714Y-114613571D01*
X177446428Y-114613571D01*
X177589285Y-114685000D01*
X177660714Y-114827857D01*
X177660714Y-114970714D01*
X176946428Y-115113571D01*
X178303571Y-115613571D02*
X178303571Y-114613571D01*
X178303571Y-114899285D02*
X178375000Y-114756428D01*
X178446428Y-114685000D01*
X178589285Y-114613571D01*
X178732142Y-114613571D01*
X160917142Y-114827857D02*
X161417142Y-114827857D01*
X161631428Y-115613571D02*
X160917142Y-115613571D01*
X160917142Y-114113571D01*
X161631428Y-114113571D01*
X162274285Y-114613571D02*
X162274285Y-115613571D01*
X162274285Y-114756428D02*
X162345714Y-114685000D01*
X162488571Y-114613571D01*
X162702857Y-114613571D01*
X162845714Y-114685000D01*
X162917142Y-114827857D01*
X162917142Y-115613571D01*
X164274285Y-115542142D02*
X164131428Y-115613571D01*
X163845714Y-115613571D01*
X163702857Y-115542142D01*
X163631428Y-115470714D01*
X163560000Y-115327857D01*
X163560000Y-114899285D01*
X163631428Y-114756428D01*
X163702857Y-114685000D01*
X163845714Y-114613571D01*
X164131428Y-114613571D01*
X164274285Y-114685000D01*
X148907857Y-114827857D02*
X149407857Y-114827857D01*
X149622142Y-115613571D02*
X148907857Y-115613571D01*
X148907857Y-114113571D01*
X149622142Y-114113571D01*
X150265000Y-114613571D02*
X150265000Y-115613571D01*
X150265000Y-114756428D02*
X150336428Y-114685000D01*
X150479285Y-114613571D01*
X150693571Y-114613571D01*
X150836428Y-114685000D01*
X150907857Y-114827857D01*
X150907857Y-115613571D01*
X152265000Y-115613571D02*
X152265000Y-114113571D01*
X152265000Y-115542142D02*
X152122142Y-115613571D01*
X151836428Y-115613571D01*
X151693571Y-115542142D01*
X151622142Y-115470714D01*
X151550714Y-115327857D01*
X151550714Y-114899285D01*
X151622142Y-114756428D01*
X151693571Y-114685000D01*
X151836428Y-114613571D01*
X152122142Y-114613571D01*
X152265000Y-114685000D01*
X154836428Y-115613571D02*
X154122142Y-115613571D01*
X154122142Y-114113571D01*
X139875000Y-114827857D02*
X140375000Y-114827857D01*
X140589285Y-115613571D02*
X139875000Y-115613571D01*
X139875000Y-114113571D01*
X140589285Y-114113571D01*
X141232142Y-114613571D02*
X141232142Y-115613571D01*
X141232142Y-114756428D02*
X141303571Y-114685000D01*
X141446428Y-114613571D01*
X141660714Y-114613571D01*
X141803571Y-114685000D01*
X141875000Y-114827857D01*
X141875000Y-115613571D01*
X143232142Y-115613571D02*
X143232142Y-114113571D01*
X143232142Y-115542142D02*
X143089285Y-115613571D01*
X142803571Y-115613571D01*
X142660714Y-115542142D01*
X142589285Y-115470714D01*
X142517857Y-115327857D01*
X142517857Y-114899285D01*
X142589285Y-114756428D01*
X142660714Y-114685000D01*
X142803571Y-114613571D01*
X143089285Y-114613571D01*
X143232142Y-114685000D01*
X145946428Y-115613571D02*
X145446428Y-114899285D01*
X145089285Y-115613571D02*
X145089285Y-114113571D01*
X145660714Y-114113571D01*
X145803571Y-114185000D01*
X145875000Y-114256428D01*
X145946428Y-114399285D01*
X145946428Y-114613571D01*
X145875000Y-114756428D01*
X145803571Y-114827857D01*
X145660714Y-114899285D01*
X145089285Y-114899285D01*
X108946428Y-109747857D02*
X109160714Y-109819285D01*
X109232142Y-109890714D01*
X109303571Y-110033571D01*
X109303571Y-110247857D01*
X109232142Y-110390714D01*
X109160714Y-110462142D01*
X109017857Y-110533571D01*
X108446428Y-110533571D01*
X108446428Y-109033571D01*
X108946428Y-109033571D01*
X109089285Y-109105000D01*
X109160714Y-109176428D01*
X109232142Y-109319285D01*
X109232142Y-109462142D01*
X109160714Y-109605000D01*
X109089285Y-109676428D01*
X108946428Y-109747857D01*
X108446428Y-109747857D01*
X110589285Y-109533571D02*
X110589285Y-110533571D01*
X109946428Y-109533571D02*
X109946428Y-110319285D01*
X110017857Y-110462142D01*
X110160714Y-110533571D01*
X110375000Y-110533571D01*
X110517857Y-110462142D01*
X110589285Y-110390714D01*
X111089285Y-109533571D02*
X111660714Y-109533571D01*
X111303571Y-109033571D02*
X111303571Y-110319285D01*
X111375000Y-110462142D01*
X111517857Y-110533571D01*
X111660714Y-110533571D01*
X114017857Y-110533571D02*
X113303571Y-110533571D01*
X113303571Y-109033571D01*
X114026428Y-128718571D02*
X114312142Y-128718571D01*
X114455000Y-128790000D01*
X114597857Y-128932857D01*
X114669285Y-129218571D01*
X114669285Y-129718571D01*
X114597857Y-130004285D01*
X114455000Y-130147142D01*
X114312142Y-130218571D01*
X114026428Y-130218571D01*
X113883571Y-130147142D01*
X113740714Y-130004285D01*
X113669285Y-129718571D01*
X113669285Y-129218571D01*
X113740714Y-128932857D01*
X113883571Y-128790000D01*
X114026428Y-128718571D01*
X116026428Y-130218571D02*
X115312142Y-130218571D01*
X115312142Y-128718571D01*
X116526428Y-129432857D02*
X117026428Y-129432857D01*
X117240714Y-130218571D02*
X116526428Y-130218571D01*
X116526428Y-128718571D01*
X117240714Y-128718571D01*
X117883571Y-130218571D02*
X117883571Y-128718571D01*
X118240714Y-128718571D01*
X118455000Y-128790000D01*
X118597857Y-128932857D01*
X118669285Y-129075714D01*
X118740714Y-129361428D01*
X118740714Y-129575714D01*
X118669285Y-129861428D01*
X118597857Y-130004285D01*
X118455000Y-130147142D01*
X118240714Y-130218571D01*
X117883571Y-130218571D01*
X114649285Y-137608571D02*
X113935000Y-137608571D01*
X113863571Y-138322857D01*
X113935000Y-138251428D01*
X114077857Y-138180000D01*
X114435000Y-138180000D01*
X114577857Y-138251428D01*
X114649285Y-138322857D01*
X114720714Y-138465714D01*
X114720714Y-138822857D01*
X114649285Y-138965714D01*
X114577857Y-139037142D01*
X114435000Y-139108571D01*
X114077857Y-139108571D01*
X113935000Y-139037142D01*
X113863571Y-138965714D01*
X115149285Y-137608571D02*
X115649285Y-139108571D01*
X116149285Y-137608571D01*
X101818571Y-108477857D02*
X102032857Y-108549285D01*
X102104285Y-108620714D01*
X102175714Y-108763571D01*
X102175714Y-108977857D01*
X102104285Y-109120714D01*
X102032857Y-109192142D01*
X101890000Y-109263571D01*
X101318571Y-109263571D01*
X101318571Y-107763571D01*
X101818571Y-107763571D01*
X101961428Y-107835000D01*
X102032857Y-107906428D01*
X102104285Y-108049285D01*
X102104285Y-108192142D01*
X102032857Y-108335000D01*
X101961428Y-108406428D01*
X101818571Y-108477857D01*
X101318571Y-108477857D01*
X103461428Y-108263571D02*
X103461428Y-109263571D01*
X102818571Y-108263571D02*
X102818571Y-109049285D01*
X102890000Y-109192142D01*
X103032857Y-109263571D01*
X103247142Y-109263571D01*
X103390000Y-109192142D01*
X103461428Y-109120714D01*
X103961428Y-108263571D02*
X104532857Y-108263571D01*
X104175714Y-107763571D02*
X104175714Y-109049285D01*
X104247142Y-109192142D01*
X104390000Y-109263571D01*
X104532857Y-109263571D01*
X107032857Y-109263571D02*
X106532857Y-108549285D01*
X106175714Y-109263571D02*
X106175714Y-107763571D01*
X106747142Y-107763571D01*
X106890000Y-107835000D01*
X106961428Y-107906428D01*
X107032857Y-108049285D01*
X107032857Y-108263571D01*
X106961428Y-108406428D01*
X106890000Y-108477857D01*
X106747142Y-108549285D01*
X106175714Y-108549285D01*
D11*
%TO.C,U1*%
X138120000Y-142460000D02*
G75*
G03*
X138120000Y-142460000I-100000J0D01*
G01*
D12*
X137160000Y-102870000D02*
X137160000Y-146050000D01*
X119380000Y-102870000D02*
X137160000Y-102870000D01*
X119380000Y-146050000D02*
X119380000Y-102870000D01*
X137160000Y-146050000D02*
X119380000Y-146050000D01*
D13*
%TO.C,J10*%
X156210000Y-113030000D02*
X156210000Y-111760000D01*
X157480000Y-113030000D02*
X156210000Y-113030000D01*
X165480000Y-110717071D02*
X165480000Y-110320000D01*
X164720000Y-110717071D02*
X164720000Y-110320000D01*
X165480000Y-101660000D02*
X165480000Y-107660000D01*
X164720000Y-101660000D02*
X165480000Y-101660000D01*
X164720000Y-107660000D02*
X164720000Y-101660000D01*
X163830000Y-110320000D02*
X163830000Y-107660000D01*
X162940000Y-110717071D02*
X162940000Y-110320000D01*
X162180000Y-110717071D02*
X162180000Y-110320000D01*
X162940000Y-101660000D02*
X162940000Y-107660000D01*
X162180000Y-101660000D02*
X162940000Y-101660000D01*
X162180000Y-107660000D02*
X162180000Y-101660000D01*
X161290000Y-110320000D02*
X161290000Y-107660000D01*
X160400000Y-110717071D02*
X160400000Y-110320000D01*
X159640000Y-110717071D02*
X159640000Y-110320000D01*
X160400000Y-101660000D02*
X160400000Y-107660000D01*
X159640000Y-101660000D02*
X160400000Y-101660000D01*
X159640000Y-107660000D02*
X159640000Y-101660000D01*
X158750000Y-110320000D02*
X158750000Y-107660000D01*
X157860000Y-110650000D02*
X157860000Y-110320000D01*
X157100000Y-110650000D02*
X157100000Y-110320000D01*
X157760000Y-107660000D02*
X157760000Y-101660000D01*
X157640000Y-107660000D02*
X157640000Y-101660000D01*
X157520000Y-107660000D02*
X157520000Y-101660000D01*
X157400000Y-107660000D02*
X157400000Y-101660000D01*
X157280000Y-107660000D02*
X157280000Y-101660000D01*
X157160000Y-107660000D02*
X157160000Y-101660000D01*
X157860000Y-101660000D02*
X157860000Y-107660000D01*
X157100000Y-101660000D02*
X157860000Y-101660000D01*
X157100000Y-107660000D02*
X157100000Y-101660000D01*
X156150000Y-107660000D02*
X156150000Y-110320000D01*
X166430000Y-107660000D02*
X156150000Y-107660000D01*
X166430000Y-110320000D02*
X166430000Y-107660000D01*
X156150000Y-110320000D02*
X166430000Y-110320000D01*
%TO.C,C1*%
X170440000Y-119380000D02*
G75*
G03*
X170440000Y-119380000I-4090000J0D01*
G01*
X166350000Y-115330000D02*
X166350000Y-123430000D01*
X166390000Y-115330000D02*
X166390000Y-123430000D01*
X166430000Y-115330000D02*
X166430000Y-123430000D01*
X166470000Y-115331000D02*
X166470000Y-123429000D01*
X166510000Y-115333000D02*
X166510000Y-123427000D01*
X166550000Y-115334000D02*
X166550000Y-123426000D01*
X166590000Y-115337000D02*
X166590000Y-123423000D01*
X166630000Y-115339000D02*
X166630000Y-118400000D01*
X166630000Y-120360000D02*
X166630000Y-123421000D01*
X166670000Y-115342000D02*
X166670000Y-118400000D01*
X166670000Y-120360000D02*
X166670000Y-123418000D01*
X166710000Y-115345000D02*
X166710000Y-118400000D01*
X166710000Y-120360000D02*
X166710000Y-123415000D01*
X166750000Y-115349000D02*
X166750000Y-118400000D01*
X166750000Y-120360000D02*
X166750000Y-123411000D01*
X166790000Y-115353000D02*
X166790000Y-118400000D01*
X166790000Y-120360000D02*
X166790000Y-123407000D01*
X166830000Y-115358000D02*
X166830000Y-118400000D01*
X166830000Y-120360000D02*
X166830000Y-123402000D01*
X166870000Y-115363000D02*
X166870000Y-118400000D01*
X166870000Y-120360000D02*
X166870000Y-123397000D01*
X166910000Y-115368000D02*
X166910000Y-118400000D01*
X166910000Y-120360000D02*
X166910000Y-123392000D01*
X166950000Y-115374000D02*
X166950000Y-118400000D01*
X166950000Y-120360000D02*
X166950000Y-123386000D01*
X166990000Y-115380000D02*
X166990000Y-118400000D01*
X166990000Y-120360000D02*
X166990000Y-123380000D01*
X167030000Y-115386000D02*
X167030000Y-118400000D01*
X167030000Y-120360000D02*
X167030000Y-123374000D01*
X167071000Y-115393000D02*
X167071000Y-118400000D01*
X167071000Y-120360000D02*
X167071000Y-123367000D01*
X167111000Y-115401000D02*
X167111000Y-118400000D01*
X167111000Y-120360000D02*
X167111000Y-123359000D01*
X167151000Y-115409000D02*
X167151000Y-118400000D01*
X167151000Y-120360000D02*
X167151000Y-123351000D01*
X167191000Y-115417000D02*
X167191000Y-118400000D01*
X167191000Y-120360000D02*
X167191000Y-123343000D01*
X167231000Y-115425000D02*
X167231000Y-118400000D01*
X167231000Y-120360000D02*
X167231000Y-123335000D01*
X167271000Y-115434000D02*
X167271000Y-118400000D01*
X167271000Y-120360000D02*
X167271000Y-123326000D01*
X167311000Y-115444000D02*
X167311000Y-118400000D01*
X167311000Y-120360000D02*
X167311000Y-123316000D01*
X167351000Y-115454000D02*
X167351000Y-118400000D01*
X167351000Y-120360000D02*
X167351000Y-123306000D01*
X167391000Y-115464000D02*
X167391000Y-118400000D01*
X167391000Y-120360000D02*
X167391000Y-123296000D01*
X167431000Y-115475000D02*
X167431000Y-118400000D01*
X167431000Y-120360000D02*
X167431000Y-123285000D01*
X167471000Y-115486000D02*
X167471000Y-118400000D01*
X167471000Y-120360000D02*
X167471000Y-123274000D01*
X167511000Y-115497000D02*
X167511000Y-118400000D01*
X167511000Y-120360000D02*
X167511000Y-123263000D01*
X167551000Y-115510000D02*
X167551000Y-118400000D01*
X167551000Y-120360000D02*
X167551000Y-123250000D01*
X167591000Y-115522000D02*
X167591000Y-118400000D01*
X167591000Y-120360000D02*
X167591000Y-123238000D01*
X167631000Y-115535000D02*
X167631000Y-118400000D01*
X167631000Y-120360000D02*
X167631000Y-123225000D01*
X167671000Y-115548000D02*
X167671000Y-118400000D01*
X167671000Y-120360000D02*
X167671000Y-123212000D01*
X167711000Y-115562000D02*
X167711000Y-118400000D01*
X167711000Y-120360000D02*
X167711000Y-123198000D01*
X167751000Y-115577000D02*
X167751000Y-118400000D01*
X167751000Y-120360000D02*
X167751000Y-123183000D01*
X167791000Y-115591000D02*
X167791000Y-118400000D01*
X167791000Y-120360000D02*
X167791000Y-123169000D01*
X167831000Y-115607000D02*
X167831000Y-118400000D01*
X167831000Y-120360000D02*
X167831000Y-123153000D01*
X167871000Y-115622000D02*
X167871000Y-118400000D01*
X167871000Y-120360000D02*
X167871000Y-123138000D01*
X167911000Y-115639000D02*
X167911000Y-118400000D01*
X167911000Y-120360000D02*
X167911000Y-123121000D01*
X167951000Y-115655000D02*
X167951000Y-118400000D01*
X167951000Y-120360000D02*
X167951000Y-123105000D01*
X167991000Y-115673000D02*
X167991000Y-118400000D01*
X167991000Y-120360000D02*
X167991000Y-123087000D01*
X168031000Y-115690000D02*
X168031000Y-118400000D01*
X168031000Y-120360000D02*
X168031000Y-123070000D01*
X168071000Y-115709000D02*
X168071000Y-118400000D01*
X168071000Y-120360000D02*
X168071000Y-123051000D01*
X168111000Y-115728000D02*
X168111000Y-118400000D01*
X168111000Y-120360000D02*
X168111000Y-123032000D01*
X168151000Y-115747000D02*
X168151000Y-118400000D01*
X168151000Y-120360000D02*
X168151000Y-123013000D01*
X168191000Y-115767000D02*
X168191000Y-118400000D01*
X168191000Y-120360000D02*
X168191000Y-122993000D01*
X168231000Y-115787000D02*
X168231000Y-118400000D01*
X168231000Y-120360000D02*
X168231000Y-122973000D01*
X168271000Y-115808000D02*
X168271000Y-118400000D01*
X168271000Y-120360000D02*
X168271000Y-122952000D01*
X168311000Y-115830000D02*
X168311000Y-118400000D01*
X168311000Y-120360000D02*
X168311000Y-122930000D01*
X168351000Y-115852000D02*
X168351000Y-118400000D01*
X168351000Y-120360000D02*
X168351000Y-122908000D01*
X168391000Y-115875000D02*
X168391000Y-118400000D01*
X168391000Y-120360000D02*
X168391000Y-122885000D01*
X168431000Y-115898000D02*
X168431000Y-118400000D01*
X168431000Y-120360000D02*
X168431000Y-122862000D01*
X168471000Y-115922000D02*
X168471000Y-118400000D01*
X168471000Y-120360000D02*
X168471000Y-122838000D01*
X168511000Y-115946000D02*
X168511000Y-118400000D01*
X168511000Y-120360000D02*
X168511000Y-122814000D01*
X168551000Y-115972000D02*
X168551000Y-118400000D01*
X168551000Y-120360000D02*
X168551000Y-122788000D01*
X168591000Y-115997000D02*
X168591000Y-122763000D01*
X168631000Y-116024000D02*
X168631000Y-122736000D01*
X168671000Y-116051000D02*
X168671000Y-122709000D01*
X168711000Y-116079000D02*
X168711000Y-122681000D01*
X168751000Y-116108000D02*
X168751000Y-122652000D01*
X168791000Y-116137000D02*
X168791000Y-122623000D01*
X168831000Y-116167000D02*
X168831000Y-122593000D01*
X168871000Y-116198000D02*
X168871000Y-122562000D01*
X168911000Y-116230000D02*
X168911000Y-122530000D01*
X168951000Y-116262000D02*
X168951000Y-122498000D01*
X168991000Y-116296000D02*
X168991000Y-122464000D01*
X169031000Y-116330000D02*
X169031000Y-122430000D01*
X169071000Y-116365000D02*
X169071000Y-122395000D01*
X169111000Y-116401000D02*
X169111000Y-122359000D01*
X169151000Y-116438000D02*
X169151000Y-122322000D01*
X169191000Y-116476000D02*
X169191000Y-122284000D01*
X169231000Y-116515000D02*
X169231000Y-122245000D01*
X169271000Y-116556000D02*
X169271000Y-122204000D01*
X169311000Y-116597000D02*
X169311000Y-122163000D01*
X169351000Y-116640000D02*
X169351000Y-122120000D01*
X169391000Y-116683000D02*
X169391000Y-122077000D01*
X169431000Y-116728000D02*
X169431000Y-122032000D01*
X169471000Y-116775000D02*
X169471000Y-121985000D01*
X169511000Y-116823000D02*
X169511000Y-121937000D01*
X169551000Y-116872000D02*
X169551000Y-121888000D01*
X169591000Y-116923000D02*
X169591000Y-121837000D01*
X169631000Y-116976000D02*
X169631000Y-121784000D01*
X169671000Y-117031000D02*
X169671000Y-121729000D01*
X169711000Y-117087000D02*
X169711000Y-121673000D01*
X169751000Y-117146000D02*
X169751000Y-121614000D01*
X169791000Y-117207000D02*
X169791000Y-121553000D01*
X169831000Y-117271000D02*
X169831000Y-121489000D01*
X169871000Y-117337000D02*
X169871000Y-121423000D01*
X169911000Y-117406000D02*
X169911000Y-121354000D01*
X169951000Y-117478000D02*
X169951000Y-121282000D01*
X169991000Y-117554000D02*
X169991000Y-121206000D01*
X170031000Y-117635000D02*
X170031000Y-121125000D01*
X170071000Y-117720000D02*
X170071000Y-121040000D01*
X170111000Y-117810000D02*
X170111000Y-120950000D01*
X170151000Y-117907000D02*
X170151000Y-120853000D01*
X170191000Y-118011000D02*
X170191000Y-120749000D01*
X170231000Y-118126000D02*
X170231000Y-120634000D01*
X170271000Y-118253000D02*
X170271000Y-120507000D01*
X170311000Y-118397000D02*
X170311000Y-120363000D01*
X170351000Y-118566000D02*
X170351000Y-120194000D01*
X170391000Y-118782000D02*
X170391000Y-119978000D01*
X170431000Y-119134000D02*
X170431000Y-119626000D01*
X162900000Y-119380000D02*
X164100000Y-119380000D01*
X163500000Y-118730000D02*
X163500000Y-120030000D01*
%TO.C,J2*%
X110320000Y-141030000D02*
X110320000Y-135830000D01*
X110320000Y-135830000D02*
X107660000Y-135830000D01*
X107660000Y-135830000D02*
X107660000Y-141030000D01*
X107660000Y-141030000D02*
X110320000Y-141030000D01*
X107660000Y-140080000D02*
X101660000Y-140080000D01*
X101660000Y-140080000D02*
X101660000Y-139320000D01*
X101660000Y-139320000D02*
X107660000Y-139320000D01*
X107660000Y-140020000D02*
X101660000Y-140020000D01*
X107660000Y-139900000D02*
X101660000Y-139900000D01*
X107660000Y-139780000D02*
X101660000Y-139780000D01*
X107660000Y-139660000D02*
X101660000Y-139660000D01*
X107660000Y-139540000D02*
X101660000Y-139540000D01*
X107660000Y-139420000D02*
X101660000Y-139420000D01*
X110650000Y-140080000D02*
X110320000Y-140080000D01*
X110650000Y-139320000D02*
X110320000Y-139320000D01*
X110320000Y-138430000D02*
X107660000Y-138430000D01*
X107660000Y-137540000D02*
X101660000Y-137540000D01*
X101660000Y-137540000D02*
X101660000Y-136780000D01*
X101660000Y-136780000D02*
X107660000Y-136780000D01*
X110717071Y-137540000D02*
X110320000Y-137540000D01*
X110717071Y-136780000D02*
X110320000Y-136780000D01*
X113030000Y-139700000D02*
X113030000Y-140970000D01*
X113030000Y-140970000D02*
X111760000Y-140970000D01*
%TO.C,J3*%
X118170000Y-112970000D02*
X115510000Y-112970000D01*
X118170000Y-118110000D02*
X118170000Y-112970000D01*
X115510000Y-118110000D02*
X115510000Y-112970000D01*
X118170000Y-118110000D02*
X115510000Y-118110000D01*
X118170000Y-119380000D02*
X118170000Y-120710000D01*
X118170000Y-120710000D02*
X116840000Y-120710000D01*
%TO.C,J4*%
X110320000Y-123250000D02*
X110320000Y-118050000D01*
X110320000Y-118050000D02*
X107660000Y-118050000D01*
X107660000Y-118050000D02*
X107660000Y-123250000D01*
X107660000Y-123250000D02*
X110320000Y-123250000D01*
X107660000Y-122300000D02*
X101660000Y-122300000D01*
X101660000Y-122300000D02*
X101660000Y-121540000D01*
X101660000Y-121540000D02*
X107660000Y-121540000D01*
X107660000Y-122240000D02*
X101660000Y-122240000D01*
X107660000Y-122120000D02*
X101660000Y-122120000D01*
X107660000Y-122000000D02*
X101660000Y-122000000D01*
X107660000Y-121880000D02*
X101660000Y-121880000D01*
X107660000Y-121760000D02*
X101660000Y-121760000D01*
X107660000Y-121640000D02*
X101660000Y-121640000D01*
X110650000Y-122300000D02*
X110320000Y-122300000D01*
X110650000Y-121540000D02*
X110320000Y-121540000D01*
X110320000Y-120650000D02*
X107660000Y-120650000D01*
X107660000Y-119760000D02*
X101660000Y-119760000D01*
X101660000Y-119760000D02*
X101660000Y-119000000D01*
X101660000Y-119000000D02*
X107660000Y-119000000D01*
X110717071Y-119760000D02*
X110320000Y-119760000D01*
X110717071Y-119000000D02*
X110320000Y-119000000D01*
X113030000Y-121920000D02*
X113030000Y-123190000D01*
X113030000Y-123190000D02*
X111760000Y-123190000D01*
%TO.C,J5*%
X113030000Y-116840000D02*
X111760000Y-116840000D01*
X113030000Y-115570000D02*
X113030000Y-116840000D01*
X110717071Y-112650000D02*
X110320000Y-112650000D01*
X110717071Y-113410000D02*
X110320000Y-113410000D01*
X101660000Y-112650000D02*
X107660000Y-112650000D01*
X101660000Y-113410000D02*
X101660000Y-112650000D01*
X107660000Y-113410000D02*
X101660000Y-113410000D01*
X110320000Y-114300000D02*
X107660000Y-114300000D01*
X110650000Y-115190000D02*
X110320000Y-115190000D01*
X110650000Y-115950000D02*
X110320000Y-115950000D01*
X107660000Y-115290000D02*
X101660000Y-115290000D01*
X107660000Y-115410000D02*
X101660000Y-115410000D01*
X107660000Y-115530000D02*
X101660000Y-115530000D01*
X107660000Y-115650000D02*
X101660000Y-115650000D01*
X107660000Y-115770000D02*
X101660000Y-115770000D01*
X107660000Y-115890000D02*
X101660000Y-115890000D01*
X101660000Y-115190000D02*
X107660000Y-115190000D01*
X101660000Y-115950000D02*
X101660000Y-115190000D01*
X107660000Y-115950000D02*
X101660000Y-115950000D01*
X107660000Y-116900000D02*
X110320000Y-116900000D01*
X107660000Y-111700000D02*
X107660000Y-116900000D01*
X110320000Y-111700000D02*
X107660000Y-111700000D01*
X110320000Y-116900000D02*
X110320000Y-111700000D01*
%TO.C,J6*%
X147260000Y-110320000D02*
X155000000Y-110320000D01*
X155000000Y-110320000D02*
X155000000Y-107660000D01*
X155000000Y-107660000D02*
X147260000Y-107660000D01*
X147260000Y-107660000D02*
X147260000Y-110320000D01*
X148210000Y-107660000D02*
X148210000Y-101660000D01*
X148210000Y-101660000D02*
X148970000Y-101660000D01*
X148970000Y-101660000D02*
X148970000Y-107660000D01*
X148270000Y-107660000D02*
X148270000Y-101660000D01*
X148390000Y-107660000D02*
X148390000Y-101660000D01*
X148510000Y-107660000D02*
X148510000Y-101660000D01*
X148630000Y-107660000D02*
X148630000Y-101660000D01*
X148750000Y-107660000D02*
X148750000Y-101660000D01*
X148870000Y-107660000D02*
X148870000Y-101660000D01*
X148210000Y-110650000D02*
X148210000Y-110320000D01*
X148970000Y-110650000D02*
X148970000Y-110320000D01*
X149860000Y-110320000D02*
X149860000Y-107660000D01*
X150750000Y-107660000D02*
X150750000Y-101660000D01*
X150750000Y-101660000D02*
X151510000Y-101660000D01*
X151510000Y-101660000D02*
X151510000Y-107660000D01*
X150750000Y-110717071D02*
X150750000Y-110320000D01*
X151510000Y-110717071D02*
X151510000Y-110320000D01*
X152400000Y-110320000D02*
X152400000Y-107660000D01*
X153290000Y-107660000D02*
X153290000Y-101660000D01*
X153290000Y-101660000D02*
X154050000Y-101660000D01*
X154050000Y-101660000D02*
X154050000Y-107660000D01*
X153290000Y-110717071D02*
X153290000Y-110320000D01*
X154050000Y-110717071D02*
X154050000Y-110320000D01*
X148590000Y-113030000D02*
X147320000Y-113030000D01*
X147320000Y-113030000D02*
X147320000Y-111760000D01*
%TO.C,J7*%
X138430000Y-113030000D02*
X138430000Y-111760000D01*
X139700000Y-113030000D02*
X138430000Y-113030000D01*
X145160000Y-110717071D02*
X145160000Y-110320000D01*
X144400000Y-110717071D02*
X144400000Y-110320000D01*
X145160000Y-101660000D02*
X145160000Y-107660000D01*
X144400000Y-101660000D02*
X145160000Y-101660000D01*
X144400000Y-107660000D02*
X144400000Y-101660000D01*
X143510000Y-110320000D02*
X143510000Y-107660000D01*
X142620000Y-110717071D02*
X142620000Y-110320000D01*
X141860000Y-110717071D02*
X141860000Y-110320000D01*
X142620000Y-101660000D02*
X142620000Y-107660000D01*
X141860000Y-101660000D02*
X142620000Y-101660000D01*
X141860000Y-107660000D02*
X141860000Y-101660000D01*
X140970000Y-110320000D02*
X140970000Y-107660000D01*
X140080000Y-110650000D02*
X140080000Y-110320000D01*
X139320000Y-110650000D02*
X139320000Y-110320000D01*
X139980000Y-107660000D02*
X139980000Y-101660000D01*
X139860000Y-107660000D02*
X139860000Y-101660000D01*
X139740000Y-107660000D02*
X139740000Y-101660000D01*
X139620000Y-107660000D02*
X139620000Y-101660000D01*
X139500000Y-107660000D02*
X139500000Y-101660000D01*
X139380000Y-107660000D02*
X139380000Y-101660000D01*
X140080000Y-101660000D02*
X140080000Y-107660000D01*
X139320000Y-101660000D02*
X140080000Y-101660000D01*
X139320000Y-107660000D02*
X139320000Y-101660000D01*
X138370000Y-107660000D02*
X138370000Y-110320000D01*
X146110000Y-107660000D02*
X138370000Y-107660000D01*
X146110000Y-110320000D02*
X146110000Y-107660000D01*
X138370000Y-110320000D02*
X146110000Y-110320000D01*
%TO.C,J8*%
X157540000Y-126940000D02*
X152340000Y-126940000D01*
X157540000Y-132080000D02*
X157540000Y-126940000D01*
X152340000Y-134680000D02*
X152340000Y-126940000D01*
X157540000Y-132080000D02*
X154940000Y-132080000D01*
X154940000Y-132080000D02*
X154940000Y-134680000D01*
X154940000Y-134680000D02*
X152340000Y-134680000D01*
X157540000Y-133350000D02*
X157540000Y-134680000D01*
X157540000Y-134680000D02*
X156210000Y-134680000D01*
%TO.C,J9*%
X110320000Y-134680000D02*
X110320000Y-124400000D01*
X110320000Y-124400000D02*
X107660000Y-124400000D01*
X107660000Y-124400000D02*
X107660000Y-134680000D01*
X107660000Y-134680000D02*
X110320000Y-134680000D01*
X107660000Y-133730000D02*
X101660000Y-133730000D01*
X101660000Y-133730000D02*
X101660000Y-132970000D01*
X101660000Y-132970000D02*
X107660000Y-132970000D01*
X107660000Y-133670000D02*
X101660000Y-133670000D01*
X107660000Y-133550000D02*
X101660000Y-133550000D01*
X107660000Y-133430000D02*
X101660000Y-133430000D01*
X107660000Y-133310000D02*
X101660000Y-133310000D01*
X107660000Y-133190000D02*
X101660000Y-133190000D01*
X107660000Y-133070000D02*
X101660000Y-133070000D01*
X110650000Y-133730000D02*
X110320000Y-133730000D01*
X110650000Y-132970000D02*
X110320000Y-132970000D01*
X110320000Y-132080000D02*
X107660000Y-132080000D01*
X107660000Y-131190000D02*
X101660000Y-131190000D01*
X101660000Y-131190000D02*
X101660000Y-130430000D01*
X101660000Y-130430000D02*
X107660000Y-130430000D01*
X110717071Y-131190000D02*
X110320000Y-131190000D01*
X110717071Y-130430000D02*
X110320000Y-130430000D01*
X110320000Y-129540000D02*
X107660000Y-129540000D01*
X107660000Y-128650000D02*
X101660000Y-128650000D01*
X101660000Y-128650000D02*
X101660000Y-127890000D01*
X101660000Y-127890000D02*
X107660000Y-127890000D01*
X110717071Y-128650000D02*
X110320000Y-128650000D01*
X110717071Y-127890000D02*
X110320000Y-127890000D01*
X110320000Y-127000000D02*
X107660000Y-127000000D01*
X107660000Y-126110000D02*
X101660000Y-126110000D01*
X101660000Y-126110000D02*
X101660000Y-125350000D01*
X101660000Y-125350000D02*
X107660000Y-125350000D01*
X110717071Y-126110000D02*
X110320000Y-126110000D01*
X110717071Y-125350000D02*
X110320000Y-125350000D01*
X113030000Y-133350000D02*
X113030000Y-134620000D01*
X113030000Y-134620000D02*
X111760000Y-134620000D01*
%TO.C,J11*%
X167580000Y-110320000D02*
X177860000Y-110320000D01*
X177860000Y-110320000D02*
X177860000Y-107660000D01*
X177860000Y-107660000D02*
X167580000Y-107660000D01*
X167580000Y-107660000D02*
X167580000Y-110320000D01*
X168530000Y-107660000D02*
X168530000Y-101660000D01*
X168530000Y-101660000D02*
X169290000Y-101660000D01*
X169290000Y-101660000D02*
X169290000Y-107660000D01*
X168590000Y-107660000D02*
X168590000Y-101660000D01*
X168710000Y-107660000D02*
X168710000Y-101660000D01*
X168830000Y-107660000D02*
X168830000Y-101660000D01*
X168950000Y-107660000D02*
X168950000Y-101660000D01*
X169070000Y-107660000D02*
X169070000Y-101660000D01*
X169190000Y-107660000D02*
X169190000Y-101660000D01*
X168530000Y-110650000D02*
X168530000Y-110320000D01*
X169290000Y-110650000D02*
X169290000Y-110320000D01*
X170180000Y-110320000D02*
X170180000Y-107660000D01*
X171070000Y-107660000D02*
X171070000Y-101660000D01*
X171070000Y-101660000D02*
X171830000Y-101660000D01*
X171830000Y-101660000D02*
X171830000Y-107660000D01*
X171070000Y-110717071D02*
X171070000Y-110320000D01*
X171830000Y-110717071D02*
X171830000Y-110320000D01*
X172720000Y-110320000D02*
X172720000Y-107660000D01*
X173610000Y-107660000D02*
X173610000Y-101660000D01*
X173610000Y-101660000D02*
X174370000Y-101660000D01*
X174370000Y-101660000D02*
X174370000Y-107660000D01*
X173610000Y-110717071D02*
X173610000Y-110320000D01*
X174370000Y-110717071D02*
X174370000Y-110320000D01*
X175260000Y-110320000D02*
X175260000Y-107660000D01*
X176150000Y-107660000D02*
X176150000Y-101660000D01*
X176150000Y-101660000D02*
X176910000Y-101660000D01*
X176910000Y-101660000D02*
X176910000Y-107660000D01*
X176150000Y-110717071D02*
X176150000Y-110320000D01*
X176910000Y-110717071D02*
X176910000Y-110320000D01*
X168910000Y-113030000D02*
X167640000Y-113030000D01*
X167640000Y-113030000D02*
X167640000Y-111760000D01*
%TO.C,R1*%
X155610000Y-122900000D02*
X155610000Y-123230000D01*
X155610000Y-123230000D02*
X149190000Y-123230000D01*
X149190000Y-123230000D02*
X149190000Y-122900000D01*
X155610000Y-120940000D02*
X155610000Y-120610000D01*
X155610000Y-120610000D02*
X149190000Y-120610000D01*
X149190000Y-120610000D02*
X149190000Y-120940000D01*
D11*
%TO.C,U2*%
X146640000Y-125170000D02*
G75*
G03*
X146640000Y-125170000I-100000J0D01*
G01*
D12*
X147320000Y-144780000D02*
X147320000Y-124460000D01*
X162560000Y-144780000D02*
X147320000Y-144780000D01*
X162560000Y-124460000D02*
X162560000Y-144780000D01*
X147320000Y-124460000D02*
X162560000Y-124460000D01*
D13*
%TO.C,J1*%
X190610000Y-114250000D02*
X190610000Y-101650000D01*
X190610000Y-101650000D02*
X180260000Y-101650000D01*
X180260000Y-101650000D02*
X180260000Y-102600000D01*
X180260000Y-102600000D02*
X179760000Y-102350000D01*
X179760000Y-102350000D02*
X179760000Y-104250000D01*
X179760000Y-104250000D02*
X179760000Y-104300000D01*
X179760000Y-104300000D02*
X180260000Y-104050000D01*
X180260000Y-104050000D02*
X180260000Y-109450000D01*
X180260000Y-109450000D02*
X179760000Y-109150000D01*
X179760000Y-109150000D02*
X179760000Y-114250000D01*
X179760000Y-114250000D02*
X190610000Y-114250000D01*
%TO.C,U1*%
D14*
X133333095Y-146547380D02*
X133333095Y-147356904D01*
X133380714Y-147452142D01*
X133428333Y-147499761D01*
X133523571Y-147547380D01*
X133714047Y-147547380D01*
X133809285Y-147499761D01*
X133856904Y-147452142D01*
X133904523Y-147356904D01*
X133904523Y-146547380D01*
X134904523Y-147547380D02*
X134333095Y-147547380D01*
X134618809Y-147547380D02*
X134618809Y-146547380D01*
X134523571Y-146690238D01*
X134428333Y-146785476D01*
X134333095Y-146833095D01*
%TO.C,J10*%
D15*
X156035476Y-113752380D02*
X156035476Y-114466666D01*
X155987857Y-114609523D01*
X155892619Y-114704761D01*
X155749761Y-114752380D01*
X155654523Y-114752380D01*
X157035476Y-114752380D02*
X156464047Y-114752380D01*
X156749761Y-114752380D02*
X156749761Y-113752380D01*
X156654523Y-113895238D01*
X156559285Y-113990476D01*
X156464047Y-114038095D01*
X157654523Y-113752380D02*
X157749761Y-113752380D01*
X157845000Y-113800000D01*
X157892619Y-113847619D01*
X157940238Y-113942857D01*
X157987857Y-114133333D01*
X157987857Y-114371428D01*
X157940238Y-114561904D01*
X157892619Y-114657142D01*
X157845000Y-114704761D01*
X157749761Y-114752380D01*
X157654523Y-114752380D01*
X157559285Y-114704761D01*
X157511666Y-114657142D01*
X157464047Y-114561904D01*
X157416428Y-114371428D01*
X157416428Y-114133333D01*
X157464047Y-113942857D01*
X157511666Y-113847619D01*
X157559285Y-113800000D01*
X157654523Y-113752380D01*
%TO.C,C1*%
X166203333Y-124817142D02*
X166155714Y-124864761D01*
X166012857Y-124912380D01*
X165917619Y-124912380D01*
X165774761Y-124864761D01*
X165679523Y-124769523D01*
X165631904Y-124674285D01*
X165584285Y-124483809D01*
X165584285Y-124340952D01*
X165631904Y-124150476D01*
X165679523Y-124055238D01*
X165774761Y-123960000D01*
X165917619Y-123912380D01*
X166012857Y-123912380D01*
X166155714Y-123960000D01*
X166203333Y-124007619D01*
X167155714Y-124912380D02*
X166584285Y-124912380D01*
X166870000Y-124912380D02*
X166870000Y-123912380D01*
X166774761Y-124055238D01*
X166679523Y-124150476D01*
X166584285Y-124198095D01*
%TO.C,H1*%
X107188095Y-149042380D02*
X107188095Y-148042380D01*
X107188095Y-148518571D02*
X107759523Y-148518571D01*
X107759523Y-149042380D02*
X107759523Y-148042380D01*
X108759523Y-149042380D02*
X108188095Y-149042380D01*
X108473809Y-149042380D02*
X108473809Y-148042380D01*
X108378571Y-148185238D01*
X108283333Y-148280476D01*
X108188095Y-148328095D01*
%TO.C,H2*%
X107188095Y-102052380D02*
X107188095Y-101052380D01*
X107188095Y-101528571D02*
X107759523Y-101528571D01*
X107759523Y-102052380D02*
X107759523Y-101052380D01*
X108188095Y-101147619D02*
X108235714Y-101100000D01*
X108330952Y-101052380D01*
X108569047Y-101052380D01*
X108664285Y-101100000D01*
X108711904Y-101147619D01*
X108759523Y-101242857D01*
X108759523Y-101338095D01*
X108711904Y-101480952D01*
X108140476Y-102052380D01*
X108759523Y-102052380D01*
%TO.C,J2*%
X113966666Y-140422380D02*
X113966666Y-141136666D01*
X113919047Y-141279523D01*
X113823809Y-141374761D01*
X113680952Y-141422380D01*
X113585714Y-141422380D01*
X114395238Y-140517619D02*
X114442857Y-140470000D01*
X114538095Y-140422380D01*
X114776190Y-140422380D01*
X114871428Y-140470000D01*
X114919047Y-140517619D01*
X114966666Y-140612857D01*
X114966666Y-140708095D01*
X114919047Y-140850952D01*
X114347619Y-141422380D01*
X114966666Y-141422380D01*
%TO.C,J3*%
X116506666Y-121162380D02*
X116506666Y-121876666D01*
X116459047Y-122019523D01*
X116363809Y-122114761D01*
X116220952Y-122162380D01*
X116125714Y-122162380D01*
X116887619Y-121162380D02*
X117506666Y-121162380D01*
X117173333Y-121543333D01*
X117316190Y-121543333D01*
X117411428Y-121590952D01*
X117459047Y-121638571D01*
X117506666Y-121733809D01*
X117506666Y-121971904D01*
X117459047Y-122067142D01*
X117411428Y-122114761D01*
X117316190Y-122162380D01*
X117030476Y-122162380D01*
X116935238Y-122114761D01*
X116887619Y-122067142D01*
%TO.C,J4*%
X113966666Y-122642380D02*
X113966666Y-123356666D01*
X113919047Y-123499523D01*
X113823809Y-123594761D01*
X113680952Y-123642380D01*
X113585714Y-123642380D01*
X114871428Y-122975714D02*
X114871428Y-123642380D01*
X114633333Y-122594761D02*
X114395238Y-123309047D01*
X115014285Y-123309047D01*
%TO.C,J5*%
X113966666Y-111212380D02*
X113966666Y-111926666D01*
X113919047Y-112069523D01*
X113823809Y-112164761D01*
X113680952Y-112212380D01*
X113585714Y-112212380D01*
X114919047Y-111212380D02*
X114442857Y-111212380D01*
X114395238Y-111688571D01*
X114442857Y-111640952D01*
X114538095Y-111593333D01*
X114776190Y-111593333D01*
X114871428Y-111640952D01*
X114919047Y-111688571D01*
X114966666Y-111783809D01*
X114966666Y-112021904D01*
X114919047Y-112117142D01*
X114871428Y-112164761D01*
X114776190Y-112212380D01*
X114538095Y-112212380D01*
X114442857Y-112164761D01*
X114395238Y-112117142D01*
%TO.C,J6*%
X146986666Y-113752380D02*
X146986666Y-114466666D01*
X146939047Y-114609523D01*
X146843809Y-114704761D01*
X146700952Y-114752380D01*
X146605714Y-114752380D01*
X147891428Y-113752380D02*
X147700952Y-113752380D01*
X147605714Y-113800000D01*
X147558095Y-113847619D01*
X147462857Y-113990476D01*
X147415238Y-114180952D01*
X147415238Y-114561904D01*
X147462857Y-114657142D01*
X147510476Y-114704761D01*
X147605714Y-114752380D01*
X147796190Y-114752380D01*
X147891428Y-114704761D01*
X147939047Y-114657142D01*
X147986666Y-114561904D01*
X147986666Y-114323809D01*
X147939047Y-114228571D01*
X147891428Y-114180952D01*
X147796190Y-114133333D01*
X147605714Y-114133333D01*
X147510476Y-114180952D01*
X147462857Y-114228571D01*
X147415238Y-114323809D01*
%TO.C,J7*%
X138096666Y-113752380D02*
X138096666Y-114466666D01*
X138049047Y-114609523D01*
X137953809Y-114704761D01*
X137810952Y-114752380D01*
X137715714Y-114752380D01*
X138477619Y-113752380D02*
X139144285Y-113752380D01*
X138715714Y-114752380D01*
%TO.C,J8*%
X154606666Y-135132380D02*
X154606666Y-135846666D01*
X154559047Y-135989523D01*
X154463809Y-136084761D01*
X154320952Y-136132380D01*
X154225714Y-136132380D01*
X155225714Y-135560952D02*
X155130476Y-135513333D01*
X155082857Y-135465714D01*
X155035238Y-135370476D01*
X155035238Y-135322857D01*
X155082857Y-135227619D01*
X155130476Y-135180000D01*
X155225714Y-135132380D01*
X155416190Y-135132380D01*
X155511428Y-135180000D01*
X155559047Y-135227619D01*
X155606666Y-135322857D01*
X155606666Y-135370476D01*
X155559047Y-135465714D01*
X155511428Y-135513333D01*
X155416190Y-135560952D01*
X155225714Y-135560952D01*
X155130476Y-135608571D01*
X155082857Y-135656190D01*
X155035238Y-135751428D01*
X155035238Y-135941904D01*
X155082857Y-136037142D01*
X155130476Y-136084761D01*
X155225714Y-136132380D01*
X155416190Y-136132380D01*
X155511428Y-136084761D01*
X155559047Y-136037142D01*
X155606666Y-135941904D01*
X155606666Y-135751428D01*
X155559047Y-135656190D01*
X155511428Y-135608571D01*
X155416190Y-135560952D01*
%TO.C,J9*%
X113966666Y-134072380D02*
X113966666Y-134786666D01*
X113919047Y-134929523D01*
X113823809Y-135024761D01*
X113680952Y-135072380D01*
X113585714Y-135072380D01*
X114490476Y-135072380D02*
X114680952Y-135072380D01*
X114776190Y-135024761D01*
X114823809Y-134977142D01*
X114919047Y-134834285D01*
X114966666Y-134643809D01*
X114966666Y-134262857D01*
X114919047Y-134167619D01*
X114871428Y-134120000D01*
X114776190Y-134072380D01*
X114585714Y-134072380D01*
X114490476Y-134120000D01*
X114442857Y-134167619D01*
X114395238Y-134262857D01*
X114395238Y-134500952D01*
X114442857Y-134596190D01*
X114490476Y-134643809D01*
X114585714Y-134691428D01*
X114776190Y-134691428D01*
X114871428Y-134643809D01*
X114919047Y-134596190D01*
X114966666Y-134500952D01*
%TO.C,J11*%
X167465476Y-113752380D02*
X167465476Y-114466666D01*
X167417857Y-114609523D01*
X167322619Y-114704761D01*
X167179761Y-114752380D01*
X167084523Y-114752380D01*
X168465476Y-114752380D02*
X167894047Y-114752380D01*
X168179761Y-114752380D02*
X168179761Y-113752380D01*
X168084523Y-113895238D01*
X167989285Y-113990476D01*
X167894047Y-114038095D01*
X169417857Y-114752380D02*
X168846428Y-114752380D01*
X169132142Y-114752380D02*
X169132142Y-113752380D01*
X169036904Y-113895238D01*
X168941666Y-113990476D01*
X168846428Y-114038095D01*
%TO.C,R1*%
X152233333Y-119832380D02*
X151900000Y-119356190D01*
X151661904Y-119832380D02*
X151661904Y-118832380D01*
X152042857Y-118832380D01*
X152138095Y-118880000D01*
X152185714Y-118927619D01*
X152233333Y-119022857D01*
X152233333Y-119165714D01*
X152185714Y-119260952D01*
X152138095Y-119308571D01*
X152042857Y-119356190D01*
X151661904Y-119356190D01*
X153185714Y-119832380D02*
X152614285Y-119832380D01*
X152900000Y-119832380D02*
X152900000Y-118832380D01*
X152804761Y-118975238D01*
X152709523Y-119070476D01*
X152614285Y-119118095D01*
%TO.C,U2*%
D14*
X161163095Y-145502380D02*
X161163095Y-146311904D01*
X161210714Y-146407142D01*
X161258333Y-146454761D01*
X161353571Y-146502380D01*
X161544047Y-146502380D01*
X161639285Y-146454761D01*
X161686904Y-146407142D01*
X161734523Y-146311904D01*
X161734523Y-145502380D01*
X162163095Y-145597619D02*
X162210714Y-145550000D01*
X162305952Y-145502380D01*
X162544047Y-145502380D01*
X162639285Y-145550000D01*
X162686904Y-145597619D01*
X162734523Y-145692857D01*
X162734523Y-145788095D01*
X162686904Y-145930952D01*
X162115476Y-146502380D01*
X162734523Y-146502380D01*
%TO.C,J1*%
D15*
X180006666Y-115022380D02*
X180006666Y-115736666D01*
X179959047Y-115879523D01*
X179863809Y-115974761D01*
X179720952Y-116022380D01*
X179625714Y-116022380D01*
X181006666Y-116022380D02*
X180435238Y-116022380D01*
X180720952Y-116022380D02*
X180720952Y-115022380D01*
X180625714Y-115165238D01*
X180530476Y-115260476D01*
X180435238Y-115308095D01*
%TO.C,H3*%
X197358095Y-142252380D02*
X197358095Y-141252380D01*
X197358095Y-141728571D02*
X197929523Y-141728571D01*
X197929523Y-142252380D02*
X197929523Y-141252380D01*
X198310476Y-141252380D02*
X198929523Y-141252380D01*
X198596190Y-141633333D01*
X198739047Y-141633333D01*
X198834285Y-141680952D01*
X198881904Y-141728571D01*
X198929523Y-141823809D01*
X198929523Y-142061904D01*
X198881904Y-142157142D01*
X198834285Y-142204761D01*
X198739047Y-142252380D01*
X198453333Y-142252380D01*
X198358095Y-142204761D01*
X198310476Y-142157142D01*
%TO.C,H4*%
X197358095Y-108402380D02*
X197358095Y-107402380D01*
X197358095Y-107878571D02*
X197929523Y-107878571D01*
X197929523Y-108402380D02*
X197929523Y-107402380D01*
X198834285Y-107735714D02*
X198834285Y-108402380D01*
X198596190Y-107354761D02*
X198358095Y-108069047D01*
X198977142Y-108069047D01*
%TD*%
M02*
