M48
; DRILL file {KiCad (5.1.9)-1} date 07/13/21 22:03:56
; FORMAT={3:3/ absolute / metric / suppress leading zeros}
; #@! TF.CreationDate,2021-07-13T22:03:56+02:00
; #@! TF.GenerationSoftware,Kicad,Pcbnew,(5.1.9)-1
FMAT,2
METRIC,TZ
T1C0.800
T2C1.000
T3C1.020
T4C1.300
T5C1.320
T6C3.200
T7C1.651
%
G90
G05
T1
X148590Y-121920
X156210Y-121920
X165100Y-119380
X167600Y-119380
T2
X111760Y-113030
X111760Y-115570
X111760Y-119380
X111760Y-121920
X111760Y-125730
X111760Y-128270
X111760Y-130810
X111760Y-133350
X111760Y-137160
X111760Y-139700
X116840Y-114300
X116840Y-116840
X116840Y-119380
X120650Y-106680
X120650Y-109220
X120650Y-111760
X120650Y-114300
X120650Y-116840
X120650Y-119380
X120650Y-121920
X120650Y-124460
X120650Y-127000
X120650Y-129540
X120650Y-132080
X120650Y-134620
X120650Y-137160
X120650Y-139700
X120650Y-142240
X135890Y-106680
X135890Y-109220
X135890Y-111760
X135890Y-114300
X135890Y-116840
X135890Y-119380
X135890Y-121920
X135890Y-124460
X135890Y-127000
X135890Y-129540
X135890Y-132080
X135890Y-134620
X135890Y-137160
X135890Y-139700
X135890Y-142240
X139700Y-111760
X142240Y-111760
X144780Y-111760
X148590Y-111760
X151130Y-111760
X153670Y-111760
X153670Y-128270
X153670Y-130810
X153670Y-133350
X156210Y-128270
X156210Y-130810
X156210Y-133350
X157480Y-111760
X160020Y-111760
X162560Y-111760
X165100Y-111760
X168910Y-111760
X171450Y-111760
X173990Y-111760
X176530Y-111760
T3
X148590Y-125730
X148590Y-128270
X148590Y-130810
X148590Y-133350
X148590Y-135890
X148590Y-138430
X148590Y-140970
X148590Y-143510
X161290Y-125730
X161290Y-128270
X161290Y-130810
X161290Y-133350
X161290Y-135890
X161290Y-138430
X161290Y-140970
X161290Y-143510
T4
X125095Y-139700
X132715Y-139700
X142240Y-116840
X142240Y-125730
X158750Y-137160
X158750Y-143510
X159385Y-114935
X159385Y-120015
X165735Y-125730
X175260Y-137160
X175260Y-143510
X182245Y-125730
T5
X182960Y-107950
X187960Y-107950
T6
X104000Y-104000
X104000Y-146000
X196000Y-104000
X196000Y-146000
T7
X120650Y-104140
X120650Y-144780
X135890Y-104140
X135890Y-144780
T0
M30
