%TF.GenerationSoftware,KiCad,Pcbnew,(5.1.9)-1*%
%TF.CreationDate,2021-07-13T22:03:11+02:00*%
%TF.ProjectId,CameraSlider,43616d65-7261-4536-9c69-6465722e6b69,rev?*%
%TF.SameCoordinates,Original*%
%TF.FileFunction,Copper,L1,Top*%
%TF.FilePolarity,Positive*%
%FSLAX46Y46*%
G04 Gerber Fmt 4.6, Leading zero omitted, Abs format (unit mm)*
G04 Created by KiCad (PCBNEW (5.1.9)-1) date 2021-07-13 22:03:11*
%MOMM*%
%LPD*%
G01*
G04 APERTURE LIST*
%TA.AperFunction,ComponentPad*%
%ADD10R,1.508000X1.508000*%
%TD*%
%TA.AperFunction,ComponentPad*%
%ADD11C,1.508000*%
%TD*%
%TA.AperFunction,ComponentPad*%
%ADD12R,1.700000X1.700000*%
%TD*%
%TA.AperFunction,ComponentPad*%
%ADD13O,1.700000X1.700000*%
%TD*%
%TA.AperFunction,ComponentPad*%
%ADD14C,1.600000*%
%TD*%
%TA.AperFunction,ComponentPad*%
%ADD15R,1.600000X1.600000*%
%TD*%
%TA.AperFunction,ComponentPad*%
%ADD16C,6.400000*%
%TD*%
%TA.AperFunction,ComponentPad*%
%ADD17O,1.600000X1.600000*%
%TD*%
%TA.AperFunction,ComponentPad*%
%ADD18R,1.530000X1.530000*%
%TD*%
%TA.AperFunction,ComponentPad*%
%ADD19C,1.530000*%
%TD*%
%TA.AperFunction,ComponentPad*%
%ADD20O,1.980000X3.960000*%
%TD*%
%TA.AperFunction,ComponentPad*%
%ADD21R,1.980000X3.960000*%
%TD*%
%TA.AperFunction,ViaPad*%
%ADD22C,2.000000*%
%TD*%
%TA.AperFunction,Conductor*%
%ADD23C,1.000000*%
%TD*%
%TA.AperFunction,Conductor*%
%ADD24C,0.500000*%
%TD*%
G04 APERTURE END LIST*
D10*
%TO.P,U1,1*%
%TO.N,N/C*%
X135890000Y-142240000D03*
D11*
%TO.P,U1,2*%
X135890000Y-139700000D03*
%TO.P,U1,3*%
X135890000Y-137160000D03*
%TO.P,U1,4*%
%TO.N,GND*%
X135890000Y-134620000D03*
%TO.P,U1,5*%
%TO.N,X_STEP*%
X135890000Y-132080000D03*
%TO.P,U1,6*%
%TO.N,ENCODER_DT*%
X135890000Y-129540000D03*
%TO.P,U1,7*%
%TO.N,N/C*%
X135890000Y-127000000D03*
%TO.P,U1,8*%
%TO.N,X_DIR*%
X135890000Y-124460000D03*
%TO.P,U1,9*%
%TO.N,ENCODER_CLK*%
X135890000Y-121920000D03*
%TO.P,U1,10*%
%TO.N,N/C*%
X135890000Y-119380000D03*
%TO.P,U1,11*%
%TO.N,EN*%
X135890000Y-116840000D03*
%TO.P,U1,12*%
%TO.N,ENDSTOP_LEFT*%
X135890000Y-114300000D03*
%TO.P,U1,13*%
%TO.N,ENDSTOP_RIGHT*%
X135890000Y-111760000D03*
%TO.P,U1,14*%
%TO.N,N/C*%
X135890000Y-109220000D03*
%TO.P,U1,15*%
X135890000Y-106680000D03*
%TO.P,U1,16*%
%TO.N,BUTTON_RIGHT*%
X120650000Y-106680000D03*
%TO.P,U1,17*%
%TO.N,N/C*%
X120650000Y-109220000D03*
%TO.P,U1,18*%
X120650000Y-111760000D03*
%TO.P,U1,19*%
%TO.N,Net-(J3-Pad3)*%
X120650000Y-114300000D03*
%TO.P,U1,20*%
%TO.N,Net-(J3-Pad2)*%
X120650000Y-116840000D03*
%TO.P,U1,21*%
%TO.N,Net-(J3-Pad1)*%
X120650000Y-119380000D03*
%TO.P,U1,22*%
%TO.N,BUTTON_LEFT*%
X120650000Y-121920000D03*
%TO.P,U1,23*%
%TO.N,SDA*%
X120650000Y-124460000D03*
%TO.P,U1,24*%
%TO.N,SCL*%
X120650000Y-127000000D03*
%TO.P,U1,25*%
%TO.N,N/C*%
X120650000Y-129540000D03*
%TO.P,U1,26*%
X120650000Y-132080000D03*
%TO.P,U1,27*%
%TO.N,+5V*%
X120650000Y-134620000D03*
%TO.P,U1,28*%
%TO.N,N/C*%
X120650000Y-137160000D03*
%TO.P,U1,29*%
%TO.N,GND*%
X120650000Y-139700000D03*
%TO.P,U1,30*%
%TO.N,N/C*%
X120650000Y-142240000D03*
%TD*%
D12*
%TO.P,J10,1*%
%TO.N,GND*%
X157480000Y-111760000D03*
D13*
%TO.P,J10,2*%
%TO.N,+5V*%
X160020000Y-111760000D03*
%TO.P,J10,3*%
%TO.N,ENCODER_DT*%
X162560000Y-111760000D03*
%TO.P,J10,4*%
%TO.N,ENCODER_CLK*%
X165100000Y-111760000D03*
%TD*%
D14*
%TO.P,C1,2*%
%TO.N,GND*%
X167600000Y-119380000D03*
D15*
%TO.P,C1,1*%
%TO.N,+BATT*%
X165100000Y-119380000D03*
%TD*%
D16*
%TO.P,H1,1*%
%TO.N,N/C*%
X104000000Y-146000000D03*
%TD*%
%TO.P,H2,1*%
%TO.N,N/C*%
X104000000Y-104000000D03*
%TD*%
D13*
%TO.P,J2,2*%
%TO.N,GND*%
X111760000Y-137160000D03*
D12*
%TO.P,J2,1*%
%TO.N,+5V*%
X111760000Y-139700000D03*
%TD*%
D13*
%TO.P,J3,3*%
%TO.N,Net-(J3-Pad3)*%
X116840000Y-114300000D03*
%TO.P,J3,2*%
%TO.N,Net-(J3-Pad2)*%
X116840000Y-116840000D03*
D12*
%TO.P,J3,1*%
%TO.N,Net-(J3-Pad1)*%
X116840000Y-119380000D03*
%TD*%
D13*
%TO.P,J4,2*%
%TO.N,GND*%
X111760000Y-119380000D03*
D12*
%TO.P,J4,1*%
%TO.N,BUTTON_LEFT*%
X111760000Y-121920000D03*
%TD*%
%TO.P,J5,1*%
%TO.N,BUTTON_RIGHT*%
X111760000Y-115570000D03*
D13*
%TO.P,J5,2*%
%TO.N,GND*%
X111760000Y-113030000D03*
%TD*%
%TO.P,J6,3*%
%TO.N,+5V*%
X153670000Y-111760000D03*
%TO.P,J6,2*%
%TO.N,GND*%
X151130000Y-111760000D03*
D12*
%TO.P,J6,1*%
%TO.N,ENDSTOP_LEFT*%
X148590000Y-111760000D03*
%TD*%
%TO.P,J7,1*%
%TO.N,ENDSTOP_RIGHT*%
X139700000Y-111760000D03*
D13*
%TO.P,J7,2*%
%TO.N,GND*%
X142240000Y-111760000D03*
%TO.P,J7,3*%
%TO.N,+5V*%
X144780000Y-111760000D03*
%TD*%
%TO.P,J8,6*%
%TO.N,Net-(J8-Pad6)*%
X153670000Y-128270000D03*
%TO.P,J8,5*%
%TO.N,+5V*%
X156210000Y-128270000D03*
%TO.P,J8,4*%
%TO.N,Net-(J8-Pad4)*%
X153670000Y-130810000D03*
%TO.P,J8,3*%
%TO.N,+5V*%
X156210000Y-130810000D03*
%TO.P,J8,2*%
%TO.N,Net-(J8-Pad2)*%
X153670000Y-133350000D03*
D12*
%TO.P,J8,1*%
%TO.N,+5V*%
X156210000Y-133350000D03*
%TD*%
D13*
%TO.P,J9,4*%
%TO.N,SDA*%
X111760000Y-125730000D03*
%TO.P,J9,3*%
%TO.N,SCL*%
X111760000Y-128270000D03*
%TO.P,J9,2*%
%TO.N,+5V*%
X111760000Y-130810000D03*
D12*
%TO.P,J9,1*%
%TO.N,GND*%
X111760000Y-133350000D03*
%TD*%
D13*
%TO.P,J11,4*%
%TO.N,Net-(J11-Pad4)*%
X176530000Y-111760000D03*
%TO.P,J11,3*%
%TO.N,Net-(J11-Pad3)*%
X173990000Y-111760000D03*
%TO.P,J11,2*%
%TO.N,Net-(J11-Pad2)*%
X171450000Y-111760000D03*
D12*
%TO.P,J11,1*%
%TO.N,Net-(J11-Pad1)*%
X168910000Y-111760000D03*
%TD*%
D17*
%TO.P,R1,2*%
%TO.N,EN*%
X148590000Y-121920000D03*
D14*
%TO.P,R1,1*%
%TO.N,+5V*%
X156210000Y-121920000D03*
%TD*%
D18*
%TO.P,U2,1*%
%TO.N,EN*%
X148590000Y-125730000D03*
D19*
%TO.P,U2,2*%
%TO.N,Net-(J8-Pad6)*%
X148590000Y-128270000D03*
%TO.P,U2,3*%
%TO.N,Net-(J8-Pad4)*%
X148590000Y-130810000D03*
%TO.P,U2,4*%
%TO.N,Net-(J8-Pad2)*%
X148590000Y-133350000D03*
%TO.P,U2,5*%
%TO.N,Net-(U2-Pad5)*%
X148590000Y-135890000D03*
%TO.P,U2,6*%
X148590000Y-138430000D03*
%TO.P,U2,7*%
%TO.N,X_STEP*%
X148590000Y-140970000D03*
%TO.P,U2,8*%
%TO.N,X_DIR*%
X148590000Y-143510000D03*
%TO.P,U2,9*%
%TO.N,GND*%
X161290000Y-143510000D03*
%TO.P,U2,10*%
%TO.N,+5V*%
X161290000Y-140970000D03*
%TO.P,U2,11*%
%TO.N,Net-(J11-Pad3)*%
X161290000Y-138430000D03*
%TO.P,U2,12*%
%TO.N,Net-(J11-Pad4)*%
X161290000Y-135890000D03*
%TO.P,U2,13*%
%TO.N,Net-(J11-Pad2)*%
X161290000Y-133350000D03*
%TO.P,U2,14*%
%TO.N,Net-(J11-Pad1)*%
X161290000Y-130810000D03*
%TO.P,U2,15*%
%TO.N,GND*%
X161290000Y-128270000D03*
%TO.P,U2,16*%
%TO.N,+BATT*%
X161290000Y-125730000D03*
%TD*%
D20*
%TO.P,J1,2*%
%TO.N,GND*%
X182960000Y-107950000D03*
D21*
%TO.P,J1,1*%
%TO.N,+BATT*%
X187960000Y-107950000D03*
%TD*%
D16*
%TO.P,H3,1*%
%TO.N,N/C*%
X196000000Y-146000000D03*
%TD*%
%TO.P,H4,1*%
%TO.N,N/C*%
X196000000Y-104000000D03*
%TD*%
D22*
%TO.N,GND*%
X125095000Y-139700000D03*
X132715000Y-139700000D03*
X158750000Y-137160000D03*
X158750000Y-143510000D03*
X159385000Y-120015000D03*
X159385000Y-114935000D03*
X175260000Y-137160000D03*
X175260000Y-143510000D03*
%TO.N,+BATT*%
X165735000Y-125730000D03*
X182245000Y-125730000D03*
%TO.N,EN*%
X142240000Y-125730000D03*
X142240000Y-116840000D03*
%TD*%
D23*
%TO.N,GND*%
X159385000Y-120015000D02*
X159385000Y-114935000D01*
X158750000Y-143510000D02*
X158750000Y-137160000D01*
X125095000Y-139700000D02*
X132715000Y-139700000D01*
X175260000Y-143510000D02*
X175260000Y-137160000D01*
%TO.N,+BATT*%
X165735000Y-125730000D02*
X182245000Y-125730000D01*
D24*
%TO.N,EN*%
X142240000Y-125730000D02*
X142240000Y-116840000D01*
%TD*%
M02*
