%TF.GenerationSoftware,KiCad,Pcbnew,(5.1.9)-1*%
%TF.CreationDate,2021-07-13T22:03:12+02:00*%
%TF.ProjectId,CameraSlider,43616d65-7261-4536-9c69-6465722e6b69,rev?*%
%TF.SameCoordinates,Original*%
%TF.FileFunction,Soldermask,Top*%
%TF.FilePolarity,Negative*%
%FSLAX46Y46*%
G04 Gerber Fmt 4.6, Leading zero omitted, Abs format (unit mm)*
G04 Created by KiCad (PCBNEW (5.1.9)-1) date 2021-07-13 22:03:12*
%MOMM*%
%LPD*%
G01*
G04 APERTURE LIST*
%ADD10R,1.508000X1.508000*%
%ADD11C,1.508000*%
%ADD12C,1.651000*%
%ADD13R,1.700000X1.700000*%
%ADD14O,1.700000X1.700000*%
%ADD15C,1.600000*%
%ADD16R,1.600000X1.600000*%
%ADD17C,6.400000*%
%ADD18O,1.600000X1.600000*%
%ADD19R,1.530000X1.530000*%
%ADD20C,1.530000*%
%ADD21O,1.980000X3.960000*%
%ADD22R,1.980000X3.960000*%
G04 APERTURE END LIST*
D10*
%TO.C,U1*%
X135890000Y-142240000D03*
D11*
X135890000Y-139700000D03*
X135890000Y-137160000D03*
X135890000Y-134620000D03*
X135890000Y-132080000D03*
X135890000Y-129540000D03*
X135890000Y-127000000D03*
X135890000Y-124460000D03*
X135890000Y-121920000D03*
X135890000Y-119380000D03*
X135890000Y-116840000D03*
X135890000Y-114300000D03*
X135890000Y-111760000D03*
X135890000Y-109220000D03*
X135890000Y-106680000D03*
X120650000Y-106680000D03*
X120650000Y-109220000D03*
X120650000Y-111760000D03*
X120650000Y-114300000D03*
X120650000Y-116840000D03*
X120650000Y-119380000D03*
X120650000Y-121920000D03*
X120650000Y-124460000D03*
X120650000Y-127000000D03*
X120650000Y-129540000D03*
X120650000Y-132080000D03*
X120650000Y-134620000D03*
X120650000Y-137160000D03*
X120650000Y-139700000D03*
X120650000Y-142240000D03*
D12*
X135890000Y-104140000D03*
X120650000Y-104140000D03*
X135890000Y-144780000D03*
X120650000Y-144780000D03*
%TD*%
D13*
%TO.C,J10*%
X157480000Y-111760000D03*
D14*
X160020000Y-111760000D03*
X162560000Y-111760000D03*
X165100000Y-111760000D03*
%TD*%
D15*
%TO.C,C1*%
X167600000Y-119380000D03*
D16*
X165100000Y-119380000D03*
%TD*%
D17*
%TO.C,H1*%
X104000000Y-146000000D03*
%TD*%
%TO.C,H2*%
X104000000Y-104000000D03*
%TD*%
D14*
%TO.C,J2*%
X111760000Y-137160000D03*
D13*
X111760000Y-139700000D03*
%TD*%
D14*
%TO.C,J3*%
X116840000Y-114300000D03*
X116840000Y-116840000D03*
D13*
X116840000Y-119380000D03*
%TD*%
D14*
%TO.C,J4*%
X111760000Y-119380000D03*
D13*
X111760000Y-121920000D03*
%TD*%
%TO.C,J5*%
X111760000Y-115570000D03*
D14*
X111760000Y-113030000D03*
%TD*%
%TO.C,J6*%
X153670000Y-111760000D03*
X151130000Y-111760000D03*
D13*
X148590000Y-111760000D03*
%TD*%
%TO.C,J7*%
X139700000Y-111760000D03*
D14*
X142240000Y-111760000D03*
X144780000Y-111760000D03*
%TD*%
%TO.C,J8*%
X153670000Y-128270000D03*
X156210000Y-128270000D03*
X153670000Y-130810000D03*
X156210000Y-130810000D03*
X153670000Y-133350000D03*
D13*
X156210000Y-133350000D03*
%TD*%
D14*
%TO.C,J9*%
X111760000Y-125730000D03*
X111760000Y-128270000D03*
X111760000Y-130810000D03*
D13*
X111760000Y-133350000D03*
%TD*%
D14*
%TO.C,J11*%
X176530000Y-111760000D03*
X173990000Y-111760000D03*
X171450000Y-111760000D03*
D13*
X168910000Y-111760000D03*
%TD*%
D18*
%TO.C,R1*%
X148590000Y-121920000D03*
D15*
X156210000Y-121920000D03*
%TD*%
D19*
%TO.C,U2*%
X148590000Y-125730000D03*
D20*
X148590000Y-128270000D03*
X148590000Y-130810000D03*
X148590000Y-133350000D03*
X148590000Y-135890000D03*
X148590000Y-138430000D03*
X148590000Y-140970000D03*
X148590000Y-143510000D03*
X161290000Y-143510000D03*
X161290000Y-140970000D03*
X161290000Y-138430000D03*
X161290000Y-135890000D03*
X161290000Y-133350000D03*
X161290000Y-130810000D03*
X161290000Y-128270000D03*
X161290000Y-125730000D03*
%TD*%
D21*
%TO.C,J1*%
X182960000Y-107950000D03*
D22*
X187960000Y-107950000D03*
%TD*%
D17*
%TO.C,H3*%
X196000000Y-146000000D03*
%TD*%
%TO.C,H4*%
X196000000Y-104000000D03*
%TD*%
M02*
